/* XPM */
static char *_25f23fda64743d891df092ef8868c9f3NVAnq69lXnniEKt[] = {
/* columns rows colors chars-per-pixel */
"128 128 86 1 ",
"  c None",
". c #3A2E25",
"X c #3B2E25",
"o c #3A2F25",
"O c #3B2F25",
"+ c #392D26",
"@ c #3A2E26",
"# c #3B2E26",
"$ c #3A2F26",
"% c #3B2F26",
"& c #3C2F26",
"* c #3B3025",
"= c #3C3026",
"- c #3C3126",
"; c #3D3226",
": c #3D3227",
"> c #3E3226",
", c #3E3326",
"< c #3F3326",
"1 c #3E3227",
"2 c #3F3227",
"3 c #3F3327",
"4 c #3F3427",
"5 c #3F3428",
"6 c #403427",
"7 c #403527",
"8 c #413527",
"9 c #413627",
"0 c #403528",
"q c #413528",
"w c #413628",
"e c #423628",
"r c #423728",
"t c #433728",
"y c #433828",
"u c #433928",
"i c #443828",
"p c #443928",
"a c #443829",
"s c #443929",
"d c #453929",
"f c #443A28",
"g c #453A28",
"h c #453A29",
"j c #453B29",
"k c #473B28",
"l c #463A29",
"z c #463B29",
"x c #473B29",
"c c #473B2A",
"v c #473C29",
"b c #473D29",
"n c #473C2A",
"m c #473D2A",
"M c #483D28",
"N c #483C29",
"B c #483D29",
"V c #483C2A",
"C c #483D2A",
"Z c #4A462B",
"A c #4D4F2D",
"S c #50582F",
"D c #526030",
"F c #536031",
"G c #556932",
"H c #587234",
"J c #587334",
"K c #587535",
"L c #5A7B36",
"P c #5A7C36",
"I c #5D8438",
"U c #608D3A",
"Y c #62953A",
"T c #62963B",
"R c #63963B",
"E c #659F3D",
"W c #65A03E",
"Q c #68A83F",
"! c #6AB140",
"~ c #6AB041",
"^ c #6DB943",
"/ c #6EBA43",
"( c #6FC344",
") c #70C344",
"_ c #70C545",
"` c #73CC47",
/* pixels */
"                                                                                                                                ",
"                                                                                                                                ",
"                                                                                                                                ",
"                                                                                                                                ",
"                                                                                                                                ",
"                                                                                                                                ",
"                                                                                                                                ",
"                                                                                                                                ",
"                                                                                                                                ",
"                                                                                                                                ",
"                                                                                                                                ",
"                                                                                                                                ",
"                                                                                                                                ",
"                                                                                                                                ",
"                                                                                                                                ",
"                                                                                                                                ",
"                                                                                                                                ",
"                                                                                                                                ",
"                                                                                                                                ",
"                                                                                                                                ",
"                                                                                                                                ",
"                                                                                                                                ",
"                                                                                                                                ",
"                                                                                                                                ",
"                                                                                                                                ",
"                                                                                                                                ",
"                                                                                                                                ",
"                                                                                                                                ",
"                                                                                                                                ",
"                                                                                                                                ",
"                                                                                                                                ",
"                                                                                                                                ",
"                                                                                                                                ",
"                                                                                                                                ",
"                                                                                                                                ",
"                                                                                                                                ",
"                                                                                                                                ",
"                                                                                                                                ",
"                                                                                                                                ",
"                                                                                                                                ",
"                                                                                                                                ",
"                                                                                                                                ",
"                                                                                                                                ",
"                                                                                                                                ",
"                                                                                                                                ",
"                                                                                                                                ",
"                                                                                                                                ",
"                                                                                                                                ",
"                                                                                                                                ",
"                                                                                                                                ",
"                                                                                                                                ",
"                                                                                                                                ",
"                                                                                                                                ",
"                                                                                                                                ",
"                                                                                                                                ",
"                                                                                                                                ",
"                                                                                                                                ",
"                         CvvCCCCCCCCvvv                                                                                         ",
"                   vCCCCCCCCCCCCCCCCCCCCCCvvv                                                                                   ",
"                vCCCCCCCCCCCCCCCCCCCCCCCCCCCCCvC                                         CVCKTJCCCJ``_T                         ",
"              vCCCCCCCCCCU(!GCCCCCFIFCCCCCCCCCCCCC                                 vVCCCCCCQ```GCS`````!CCCCv                   ",
"           CvCCCCCCCCCCCI````TCCCU```UCCCCCCCCCCCCCC                            CVCCCCCCCCS````~CQ``````FCCCCCCC                ",
"          vCCCCCCCCCCCCC_`````ICA`````CCCCCCCCCCCCCCCC                       vvCCCCCCCCCCCF`````A```````FCCCCCCCCvC             ",
"        vCCCCCCCCCCCCCCF```````FL`````CCFWQGCCCCCCCCCCCC                   CCCCCCCCAQ`^EJCC)````Q``````)ZCCCCCCCCCCCC           ",
"       CCCCCCCCCCCCCCCCF```````/I````QZW````JCCCCCCCCCCCv                vvCCCCCCCCW`````^JT```````````JCCCCCCCCCCCCCV          ",
"      CCCCCCCCCCCCCCCCCC_````````````P!`````(ACCCCCCCCCCCC              CCCCCCCCCCC````````)``````````TCCCCCCCCCCCCCCCCC        ",
"     CCCCCCCCCCCCCCCCCCCI````````````/```````PCCCCCCCCCCCCC            VCCCCCCCCCCC``````````````````ICCCCCCCCCCCCCCCCCCv       ",
"     CCCCCCCCCCCCCCCCCCCCI```````````````````ICCCCCCCCCCCCC           CCCCCCCCCCCCCW```````````````)FCCCCCCCCCCCCCCCCCCCCv      ",
"    MCCCCCCCCCCCCCCCCCCCCCK_`````````````````FCCCCCCCCCCCCCC         CCCCCCCCCCCCCCF```````````````GCCCCCCCCCCCCCCCCCCCCCCv     ",
"    CCCCCCCCCCCCCCCCCCCCCCCJ```````````````)JCCCCCCCCCCCCCCC        VCCCCCCCCCCCCCCCJ)`````````````CCCCCCCCCCCCCCCCCCCCCCCCv    ",
"   CCCCCCCCCCCCCCCCCCCCCCCCCQ````````````^IACCCCCCCCCCCCCCCCC       CCCCCCCCCCCCCCCCCZGIQ`````````)CCCCCCCCCCCCCCCCCCCCCCCCC    ",
"   lCCCCCCCCCCCCCCCCCCCCCCCCI````````^PFACCCCCCCCCCCCCCCCCCCv      vCCCCCCCCCCCCCCCCCCCCCA!````````CCCCCCCCCCCCCCCCCCCCCCCCCC   ",
"   CCCCCCCCCCCCCCCCCCCCCCCCCF```````_ZCCCCCCCCCCCCCCCCCCCCCCv      vCCCCCCCCCCCCCCCCCCCCCCZ)```````CCCCCCCCCCCCCCCCCCCCCCCCCC   ",
"   CCCCCCCCCCCCCCCCCCCCCCCCCF```````UCCCCCCCCCCCCCCCCCCCCCCCC      CCCCCCCCCCCCCCCCCCCCCCCCJ```````DCCCCCCCCCCCCCCCCCCCCCCCCC   ",
"   CCCCCCCCCCCCCCCCCCCCCCCCCZ```````GCCCCCCCCCCCCCCCCCCCCCCCC      CCCCCCCCCCCCCCCCCCCCCCCCZ)``````FCCCCCCCCCCCCCCCCCCCCCCCCC   ",
"   CCCCCCCCCCCCCCCCCCCCCCCCCC``````_CCCCCCCCCCCCCCCCCCCCCCCCC      CCCCCCCCCCCCCCCCCCCCCCCCCI``````ACCCCCCCCCCCCCCCCCCCCCCCCC   ",
"   CCCCCCCCCCCCCCCCCCCCCCCCCC)`````KCCCCCCCCCCCCCCCCCCCCCCCCC      CCCCCCCCCCCCCCCCCCCCCCCCCCAFIIIFCCCCCCCCCCCCCCCCCCCCCCCCCC   ",
"   CCCCCCCCCCCCCCCCCCCCCCCCCCAJIKFZCCCCCCCCCCCCCCCCCCCCCCCCCC      CCCCCCCCCCCCCCCCCCCCCCCCCCCCCCCCCCCCCCCCCCCCCCCCCCCCCCCCCC   ",
"   CCCCCCCCCCCCCCCCCCCCCCCCCCCCCCCCCCCCCCCCCCCCCCCCCCCCCCCCCC      CCCCCCCCCCCCCCCCCCCCCCCCCCCCCCCCCCCCCCCCCCCCCCCCCCCCCCCCCC   ",
"   CCCCCCCCCCCCCCCCCCCCCCCCCCCVZCCCCCCCCCCCCCCCCCCCCCCCCCCCCC      CCCCCCCCCCCCCCCCCCCCCCCCCCCCCCCCCCCCCCCCCCCCCCCCCCCCCCCCCC   ",
"   CCCCCCCCCCCCCCCCCCCCCCCCCCSIPCCCZW`QFZkCCCCCCCCCCCCCCCCCCC      CCCCCCCCCCCCCCCCCCCCCCCCCCCCCCCCCCCCCCCCCCCCCCCCCCCCCCCCCC   ",
"   CCCCCCCCCCCCCCCCCCCCVCCCCI```UCZQ````TCCCCCCCCCCCCCCCCCCCC      CCCCCCCCCCCCCCCCCCCCCCCCCCCCCCCCCCCCCCCCCCCCCCCCCCCCCCCCCC   ",
"   CCCCCCCCCCCCCCCCCCCCZCCCC)```)CP``````GCCCCCCCCCCCCCCCCCCC      CCCCCCCCCCCCCCCCCCCSZCCCCCAQ`!SCCCCCCCCCCCCCCCCCCCCCCCCCCC   ",
"   CCCCCCCCCCCCCCCCCCASSCCCC`````F)``````ICCCCCCCCCCCCCCCCCCC      CCCCCCCCCCCCCCCCCZ!``QSCCCQ```(CCCADACCCCCCCCCCCCCCCCCCCCC   ",
"   CCCCCCCCCCCCCCCCCG)``(TAC^````R```````GCCCCCCCCCCCCCCCCCCC      CCCCCCCCCCCCCCCCCI````/KCA`````CCI```JCCCCCCCCCCCCCCCCCCCC   ",
"   CCCCCCCCCCCCCCCCCQ`````(IU````)``````QCCCCCCCCCCCCCCCCCCCC      CCCCCCCCCCCCCCCCC/``````JD`````CT`````JCCCCCCCCCCCCCCCCCCC   ",
"   CCCCCCCCCCCCCCCCM```````````````````_ZZCCCCCCCCCCCCCCCCCCC      CCCCCCCCCCCCCCCCC````````L````!I``````(ZCCCCCCCCCCCCCCCCCC   ",
"   CCCCCCCCCCCCCCCCZ_`````````````````QACCCCCCCCCCCCCCCCCCCCC      CCCCCCCCCCCCCCCCC/````````````)````````FCCCCCCCCCCCCCCCCCC   ",
"   CCCCCCCCCCCCCCCCCR````````````````UZCCCCCCCCCCCCCCCCCCCCCC      CCCCCCCCCCCCCCCCCI````````````````````)ZCCCCCCCCCCCCCCCCCC   ",
"   CCCCCCCCCCCCCCCCCZ)``````````````JCCCCCCCCCCCCCCCCCCCCCCCC      CCCCCCCCCCCCCCCCCZ!```````````````````KCCCCCCCCCCCCCCCCCCC   ",
"   CCCCCCCCCCCCCCCCCCAQ````````````QCCCCCCCCCCCCCCCCCCCCCCCCC      CCCCCCCCCCCCCCCCCCZI````````````````^FCCCCCCCCCCCCCCCCCCCC   ",
"   CCCCCCCCCCCCCCCCCCCCZGU)````````UCCCCCCCCCCCCCCCCCCCCCCCCC      CCCCCCCCCCCCCCCCCCCCA!````````````!JCCCCCCCCCCCCCCCCCCCCCC   ",
"   CCCCCCCCCCCCCCCCCCCCCCCAQ```````ICCCCCCCCCCCCCCCCCCCCCCCCC      CCCCCCCCCCCCCCCCCCCCCZ)`````````IACCCCCCCCCCCCCCCCCCCCCCCC   ",
"   CCCCCCCCCCCCCCCCCCCCCCCZA)``````QCCCCCCCCCCCCCCCCCCCCCCCCC      CCCCCCCCCCCCCCCCCCCCCCL````````PCCCCCCCCCCCCCCCCCCCCCCCCCC   ",
"   CCCCCCCCCCCCCCCCCCCCCCCCCI``````QCCCCCCCCCCCCCCCCCCCCCCCCC      CCCCCCCCCCCCCCCCCCCCCCZ```````)CCCCCCCCCCCCCCCCCCCCCCCCCCC   ",
"   CCCCCCCCCCCCCCCCCCCCCCCCCZ)`````UCCCCCCCCCCCCCCCCCCCCCCCCC      CCCCCCCCCCCCCCCCCCCCCCC~``````RCCCCCCCCCCCCCCCCCCCCCCCCCCC   ",
"   CCCCCCCCCCCCCCCCCCCCCCCCCCI````^SCCCCCCCCCCCCCCCCCCCCCCCCC      CCCCCCCCCCCCCCCCCCCCCCCI``````JCCCCCCCCCCCCCCCCCCCCCCCCCCC   ",
"   CCCCCCCCCCCCCCCCCCCCCCCCCCCAFFZCCCCCCCCCCCCCCCCCCCCCCCCCCC      CCCCCCCCCCCCCCCCCCCCCCCK``````ACCCCCCCCCCCCCCCCCCCCCCCCCCC   ",
"   CCCCCCCCCCCCCCCCCCCCCCCCCCCCCCCCCCCCCCCCCCCCCCCCCCCCCCCCCC      CCCCCCCCCCCCCCCCCCCCCCCA`````WCCCCCCCCCCCCCCCCCCCCCCCCCCCC   ",
"   CCCCCCCCCCCCCCCCCCCCCCCCCCCCCCCCCCCCCCCCCCCCCCCCCCCCCCCCCC      CCCCCCCCCCCCCCCCCCCCCCCCSFFFFZCCCCCCCCCCCCCCCCCCCCCCCCCCCC   ",
"   CCCCCCCCCCCCCCCCCCCCCCCCCCCCCCCCCCCCCCCCCCCCCCCCCCCCCCCCCC      CCCCCCCCCCCCCCCCCCCCCCCCCCCCCCCCCCCCCCCCCCCCCCCCCCCCCCCCCC   ",
"   CCCCCCCCCCCCCCCCCCCCCCCCCCCCCCCCCCCCCCCCCCCCCCCCCCCCCCCCCC      CCCCCCCCCCCCCCCCCCCCCCCCCCCCCCCCCCCCCCCCCCCCCCCCCCCCCCCCCC   ",
"   CCCCCCCCCCCCCCCCCCCCCCCCCCCCCCCCCCCCCCCCCCCCCCCCCCCCCCCCCC      CCCCCCCCCCCCCCCCCCCCCCCCCCCCCCCCCCCCCCCCCCCCCCCCCCCCCCCCCC   ",
"   CCCCCCCCCCCCCCCCCCCCCCCCCCCCCCCCCCCCCCCCCCCCCCCCCCCCCCCCCC      CCCCCCCCCCCCCCCCCCCCCCCCCCCCCCCCCCCCCCCCCCCCCCCCCCCCCCCCCC   ",
"   CCCCCCCCCCCCCCCCCCCCCCCCCCCCCCCCCCCCCCCCCCCCCCCCCCCCCCCCCC      CCCCCCCCCCCCCCCCCCCCCCCCCCCCCCCCCCCCCCCCCCCCCCCCCCCCCCCCCC   ",
"   CCCCCCCCCCCCCCCCCCCCmCCvvCCCCCCCCCCCCCCCCCCCCCCCCCCCCCCCCC      CCCCCCCCCCCCCCCCCCCCCCCCCCCCCCCCCCCCCCCCCCCCCCCCCCCCCCCCCC   ",
"   CCCCCCCCCCCCCCCCCCCvlu3==$&==%%%%&=wwlCCCCCCCCCCCCCCCCCCCC      CCCCCCCCCCCCCCCCCCCCCCCCCCCCCCCCCCCCCCCCCCCCCCCCCCCCCCCCCC   ",
"   CCCCCCCCCCCCvCCww3&&$%%==&$$$%%%%%%%%%%==6lCCCCCCCCCCCCCCC      CCCCCCCCCCCCCCCCCCCCCCCCCCCCCCCCCCCCvCCCCCCCCCCCCCCCCCCCCC   ",
"   CCCCCCCCCCCvw=&%%$&$&$&$&$&$&%%%%%%%%%%%%%%%=ulCCCCCCCCCCC      CCCCCCCCCCCCCCvCvCllw4===%%%%&%%%==35wulCCCvvCCCCCCCCCCCCC   ",
"   CCCCCCCCCl4%%=&%%&$&$&$&$&$&$%%%%%%%%%%%%%%%%%==lCCCCCCCCC      CCCCCCCCCCCCCCuw=&%%%%%==%%%%%%%%==%%%%%%=wlCCCCCCCCCCCCCC   ",
"   CCCCCCCv==%%%%%%%$&$&$&$&$&$&%%%%%%%%%%%%%%%%%%%%4pvvCCCCC      CCCCCCCvvCCw6%%%%%%%%%%%%%%%%%%%%%%%%%%%%=%%%wwCCmCCCCCCCC   ",
"   CCCCCv==%%%%%%%%%&$&$&$&$&$&$%%%%%%%%%%%%%%%%%%%%=%4lCCCCC      CCCCCCCCl6&%%%%%%%%%%%%%%%%%%%%%%%%%%%%%%%%%%%%%wlCCCCCCCC   ",
"   CCCCw%%%%%%%%%%%%%%%%%%%%%%%%%%%%%%%%%%%%%%%%%%%%%%%%rCCCC      CCCCCCl===%%%%%%%%%%%%%%%%%%%%%%%%%%%%%%%%%%%%%%%%=VCCCCCC   ",
"   CCCw%%%%%%%%%%%%%%%%%%%%%%%%%%%%%%%%%%%%%%%%%%%%%%%%%=6CCC      CCCCv5%%%%%%%%%%%%%%%%%%%%%%%%%%%%%%%%%%%%%%%%%%%%%&wVCCCC   ",
"   CCw%%%%%%%%%%%%%%%%%%%%%%%%%%%%%%%%%%%%%%%%%%%%%%%%%%=%6vC      CvCu%%%%%%%%%%%%%%%%%%%%%%%%%%%%%%%%%%%%%%%%%%%%%%%%%=lCCC   ",
"   Ct%%%%%%%%%%%%%%%%%%%%%%%%%%%%%%%%%%%%%%%%%%%%%%%%%%%%%%lC      Cvl%%%%%%%%%%%%%%%%%%%%%%%%%%%%%%%%%%%%%%%%%%%%%%%%%%%%lvC   ",
"   C=%%%%%%%%%%%%%%%%%%%%%%%%%%%%%%%%%%%%%%%%%%%%%%%%%%%%%%=l      Cl%%%%%%%%%%%%%%%%%%%%%%%%%%%%%%%%%%%%%%%%%%%%%%%%%%%%%%lC   ",
"   6%%%%%%%%%%%%%%%%%%%%%%%%%%%%%%%%%%%%%%%%%%%%%%%%%%%%%%%%l      l%%%%%%%%%%%%%%%%%%%%%%%%%%%%%%%%%%%%%%%%%%%%%%%%%%%%%%%&v   ",
"   6%%%%%%%%%%%%%%%%%%%%%%%%%%%%%%%%%%%%%%%%%%%%%%%%%%%%%%%%=      w%%%%%%%%%%%%%%%%%%%%%%%%%%%%%%%%%%%%%%%%%%%%%%%%%%%%%%%%u   ",
"   &%%%%%%%%%%%%%%%%%%%%%%%%%%%%%%%%%%%%%%%%%%%%%%%%%%%%%%%%%      =%%%%%%%%%%%%%%%%%%%%%%%%%%%%%%%%%%%%%%%%%%%%%%%%%%%%%%%%3   ",
"   %%%%%%%%%%%%%%%%%%%%%%%%%%%%%%%%%%%%%%%%%%%%%%%%%%%%%%%%%%      %%%%%%%%%%%%%%%%%%%%%%%%%%%%%%%%%%%%%%%%%%%%%%%%%%%%%%%%%=   ",
"   %%%%%%%%%%%%%%%%%%%%%%%%%%%%%%%%%%%%%%%%%%%%%%%%%%%%%%%%%%      %%%%%%%%%%%%%%%%%%%%%%%%%%%%%%%%%%%%%%%%%%%%%%%%%%%%%%%%%%   ",
"    %%%%%%%%%%%%%%%%%%%%%%%%%%%%%%%%%%%%%%%%%%%%%%%%%%%%%%%%        %%%%%%%%%%%%%%%%%%%%%%%%%%%%%%%%%%%%%%%%%%%%%%%%%%%%%%%%%   ",
"     %%%%%%%%%%%%%%%%%%%%%%%%%%%%%%%%%%%%%%%%%%%%%%%%%%%%%%          %%%%%%%%%%%%%%%%%%%%%%%%%%%%%%%%%%%%%%%%%%%%%%%%%%%%%%     ",
"       %%%%%%%%%%%%%%%%%%%%%%%%%%%%%%%%%%%%%%%%%%%%%%%%%%             %%%%%%%%%%%%%%%%%%%%%%%%%%%%%%%%%%%%%%%%%%%%%%%%%%%       ",
"              %%%%%%%%%%%%%%%%%%%%%%%%%%%%%%%%%%%%                         %%%%%%%%%%%%%%%%%%%%%%%%%%%%%%%%%%%%%%%+%            ",
"                                                                                                                                ",
"                                                                                                                                "
};
