/* XPM */
static char *d597c91fde0e48da9cf40435ae1e68befouGS1qybzUNb5HP[] = {
/* columns rows colors chars-per-pixel */
"128 64 127 2 ",
"   c None",
".  c #393731",
"X  c #393533",
"o  c #383632",
"O  c #393632",
"+  c #383633",
"@  c #393633",
"#  c #393733",
"$  c #3A3732",
"%  c #3A3633",
"&  c #3A3733",
"*  c #3C3732",
"=  c #393634",
"-  c #393734",
";  c #3A3634",
":  c #3A3734",
">  c #3B3734",
",  c #3B3735",
"<  c #393832",
"1  c #3B3833",
"2  c #3B3A32",
"3  c #3A3834",
"4  c #3B3834",
"5  c #3B3934",
"6  c #3A3835",
"7  c #3B3835",
"8  c #3B3935",
"9  c #3B3836",
"0  c #3B3A36",
"q  c #3C3834",
"w  c #3D3834",
"e  c #3C3934",
"r  c #3C3835",
"t  c #3C3935",
"y  c #3C3A34",
"u  c #3F3B35",
"i  c #3C3836",
"p  c #3C3936",
"a  c #3D3937",
"s  c #3C3A37",
"d  c #3D3A37",
"f  c #3E3A37",
"g  c #3E3C36",
"h  c #3E3A38",
"j  c #3E3B38",
"k  c #3F3C39",
"l  c #403D39",
"z  c #413E38",
"x  c #403F38",
"c  c #413F39",
"v  c #423F38",
"b  c #423F39",
"n  c #403D3A",
"m  c #413E3B",
"M  c #413F3B",
"N  c #423F3A",
"B  c #423F3B",
"V  c #423F3C",
"C  c #41403A",
"Z  c #42403A",
"A  c #43403B",
"S  c #43413B",
"D  c #464438",
"F  c #464539",
"G  c #474539",
"H  c #46443A",
"J  c #46453B",
"K  c #46463B",
"L  c #43403C",
"P  c #43413C",
"I  c #44403C",
"U  c #44413C",
"Y  c #45423C",
"T  c #44423D",
"R  c #45433D",
"E  c #46433C",
"W  c #46433D",
"Q  c #46433E",
"!  c #46443D",
"~  c #47443D",
"^  c #47463C",
"/  c #47443E",
"(  c #48463B",
")  c #48473B",
"_  c #48453C",
"`  c #49463C",
"'  c #48473C",
"]  c #49473C",
"[  c #49463D",
"{  c #49473D",
"}  c #48453E",
"|  c #48463E",
" . c #49463E",
".. c #49473E",
"X. c #49473F",
"o. c #4A473E",
"O. c #4A473F",
"+. c #49483C",
"@. c #49483D",
"#. c #4A483C",
"$. c #4A483D",
"%. c #4A493D",
"&. c #4B493D",
"*. c #4B483E",
"=. c #4B483F",
"-. c #4B493F",
";. c #4B4A3E",
":. c #4B4A3F",
">. c #4C493D",
",. c #4C493E",
"<. c #4C4A3E",
"1. c #4D4A3E",
"2. c #4C4A3F",
"3. c #4D4A3F",
"4. c #4C4B3F",
"5. c #4D4B3F",
"6. c #4D4C3F",
"7. c #4E4C3F",
"8. c #4B4940",
"9. c #4C4940",
"0. c #4D4B40",
"q. c #4E4B40",
"w. c #4D4C40",
"e. c #4E4C40",
"r. c #4F4D40",
"t. c #4E4C41",
"y. c #4F4D41",
/* pixels */
"                                                                                                                                                                                                                                                                ",
"                                                                                                                                                                                                                                                                ",
"                                                                                                                                                                                                                                                                ",
"                                                                                                                                                                                                                                                                ",
"                                                                                                                                                                                                                                                                ",
"                                                                                                                                                                                                                                                                ",
"                                                                                                                                                                                                                                                                ",
"                                                                                                        H ! +._ _ +.<.<.<.6.y.y.y.0.<.+.+.+._ _ ! (                                                                                                             ",
"                                                                                            +.+.6.y.y.y.y.y.y.y.y.y.y.y.y.y.y.y.y.y.y.y.y.y.y.y.y.y.y.y.y.6.+.+.                                                                                                ",
"                                                                                  _ y.y.y.y.y.y.y.y.y.y.y.y.y.y.y.y.y.y.y.y.y.y.y.y.y.y.y.y.y.y.y.y.y.y.y.y.y.y.y.y.y.y.+.                                                                                      ",
"                                                                          H 4.y.y.y.y.y.y.y.y.y.y.y.y.y.y.y.y.y.y.y.y.y.y.y.y.y.y.y.y.y.y.y.y.y.y.y.y.y.y.y.y.y.y.y.y.y.y.y.y.+.!                                                                               ",
"                                                                    _ y.y.y.y.y.y.y.y.y.y.y.y.y.y.y.y.y.y.y.y.y.y.y.y.y.y.y.y.y.y.y.y.y.y.y.y.y.y.y.y.y.y.y.y.y.y.y.y.y.y.y.y.y.y.y.<.+.                                                                        ",
"                                                              H <.y.y.y.y.y.y.y.y.y.y.y.y.y.y.y.y.y.y.y.y.y.y.y.y.y.y.y.y.y.y.y.y.y.y.y.y.y.y.y.y.y.y.y.y.y.y.y.y.y.y.y.y.y.y.y.y.y.y.y.y.0.!                                                                   ",
"                                                          <.y.y.y.y.y.y.y.y.y.y.y.y.y.y.y.y.y.y.y.y.y.y.y.y.y.y.y.y.y.y.y.y.y.y.y.y.y.y.y.y.y.y.y.y.y.y.y.y.y.y.y.y.y.y.y.y.y.y.y.y.y.y.y.y.y.y.<.                                                              ",
"                                                    _ y.y.y.y.y.y.y.y.y.y.y.y.y.y.y.y.y.y.y.y.y.y.y.y.y.y.y.y.y.y.y.y.y.y.y.y.y.y.y.y.y.y.y.y.y.y.y.y.y.y.y.y.y.y.y.y.y.y.y.y.y.y.y.y.y.y.y.y.y.y.y.6.+.                                                        ",
"                                                ( <.y.y.y.y.y.y.y.y.y.y.y.y.y.y.y.y.y.y.y.y.y.y.y.y.y.y.y.y.y.y.y.y.y.y.y.y.y.y.y.y.y.y.y.y.y.y.y.y.y.y.y.y.y.y.y.y.y.y.y.y.y.y.y.y.y.y.y.y.y.y.y.y.y.y.6.H                                                     ",
"                                              <.y.y.y.y.y.y.y.y.y.y.y.y.y.y.y.y.y.y.y.y.y.y.y.y.y.y.y.y.y.y.y.y.y.y.y.y.y.y.y.y.y.y.y.y.y.y.y.y.y.y.y.y.y.y.y.y.y.y.y.y.y.y.y.y.y.y.y.y.y.y.y.y.y.y.y.y.y.y.<.                                                  ",
"                                          +.y.y.y.y.y.y.y.y.y.y.y.y.y.y.y.y.y.y.y.y.y.y.y.y.y.y.y.y.y.y.y.y.y.y.y.y.y.y.y.y.y.y.y.y.y.y.y.y.y.y.y.y.y.y.y.y.y.y.y.y.y.y.y.y.y.y.y.y.y.y.y.y.y.y.y.y.y.y.y.y.y.y.H                                               ",
"                                        <.y.y.y.y.y.y.y.y.y.y.y.y.y.y.y.y.y.y.y.y.y.y.y.y.y.y.y.y.y.y.y.y.y.y.y.y.y.y.y.y.y.y.y.y.y.y.y.y.y.y.y.y.y.y.y.y.y.y.y.y.y.y.y.y.y.y.y.y.y.y.y.y.y.y.y.y.y.y.y.y.y.y.y.y.<.                                            ",
"                                      y.y.y.y.y.y.y.y.y.y.y.y.y.y.y.y.y.y.y.y.y.y.y.y.y.y.y.y.y.y.y.y.y.y.y.y.y.y.y.y.y.y.y.y.y.y.y.y.y.y.y.y.y.y.y.y.y.y.y.y.y.y.y.y.y.y.y.y.y.y.y.y.y.y.y.y.y.y.y.y.y.y.y.y.y.y.y.y.                                          ",
"                                  +.y.y.y.y.y.y.y.y.y.y.y.y.y.y.y.y.y.y.y.y.y.y.y.y.y.y.y.y.y.y.y.y.y.y.y.y.y.y.y.y.y.y.y.y.y.y.y.y.y.y.y.y.y.y.y.y.y.y.y.y.y.y.y.y.y.y.y.y.y.y.y.y.y.y.y.y.y.y.y.y.y.y.y.y.y.y.y.y.y.y.+.                                      ",
"                                _ y.y.y.y.y.y.y.y.y.y.y.y.y.y.y.y.y.y.y.y.y.y.y.y.y.y.y.y.y.y.y.y.y.y.y.y.y.y.y.y.y.y.y.y.y.y.y.y.y.y.y.y.y.y.y.y.y.y.y.y.y.y.y.y.y.y.y.y.y.y.y.y.y.y.y.y.y.y.y.y.y.y.y.y.y.y.y.y.y.y.y.y.(                                     ",
"                              ( y.y.y.y.y.y.y.y.y.y.y.y.y.y.y.y.y.y.y.y.y.y.y.y.y.y.y.y.y.y.y.y.y.y.y.y.y.y.y.y.y.y.y.y.y.y.y.y.y.y.y.y.y.y.y.y.y.y.y.y.y.y.y.y.y.y.y.y.y.y.y.y.y.y.y.y.y.y.y.y.y.y.y.y.y.y.y.y.y.y.y.y.y.y.H                                   ",
"                              y.y.y.y.y.y.y.y.y.y.y.y.y.y.y.y.y.y.y.y.y.y.y.y.y.y.y.y.y.y.y.y.y.y.y.y.y.y.y.y.y.y.y.y.y.y.y.y.y.y.y.y.y.y.y.y.y.y.y.y.y.y.y.y.y.y.y.y.y.y.y.y.y.y.y.y.y.y.y.y.y.y.y.y.y.y.y.y.y.y.y.y.y.y.y.y.                                  ",
"                            0.y.y.y.y.y.y.y.y.y.y.y.y.y.y.y.y.y.y.y.y.y.y.y.y.y.y.y.y.y.y.y.y.y.y.y.y.y.y.y.y.y.y.y.y.y.y.y.y.y.y.y.y.y.y.y.y.y.y.y.y.y.y.y.y.y.y.y.y.y.y.y.y.y.y.y.y.y.y.y.y.y.y.y.y.y.y.y.y.y.y.y.y.y.y.y.y.<.                                ",
"                          <.y.y.y.y.y.y.y.y.y.y.y.y.y.y.y.y.y.y.y.y.y.y.y.y.y.y.y.y.y.y.y.y.y.y.y.0.0._ ! 8.! I ! I I I L L V V L L L I ! I ! I _ 8.8.8.8.y.y.y.y.y.y.y.y.y.y.y.y.y.y.y.y.y.y.y.y.y.y.y.y.y.y.y.y.y.y.y.y.y.y.y.<.                              ",
"                          y.y.y.y.y.y.y.y.y.y.y.y.y.y.y.y.y.y.y.y.y.y.y.y.y.y.y.y.y.y.0.8.! 8.V L V V V V V V V V V V V L V V V V V L L V V V V V V V V V L I I 8.+.y.y.y.y.y.y.y.y.y.y.y.y.y.y.y.y.y.y.y.y.y.y.y.y.y.y.y.y.y.y.y.                              ",
"                        <.y.y.y.y.y.y.y.y.y.y.y.y.y.y.y.y.y.y.y.y.y.y.y.y.y.y.<.+.I L V V L V V V V V V V V V V V V V V V V V V V V V V V V V V V V V V L L L V V V V L ! _ 8.y.y.y.y.y.y.y.y.y.y.y.y.y.y.y.y.y.y.y.y.y.y.y.y.y.y.<.                            ",
"                        y.y.y.y.y.y.y.y.y.y.y.y.y.y.y.y.y.y.y.y.y.y.y.y._ 8.L V L V V V V V V V V V V V V V V V V V V V V V V V V V V V V V V V V V V V V V V V V V V V V V V L _ 8.y.y.y.y.y.y.y.y.y.y.y.y.y.y.y.y.y.y.y.y.y.y.y.y.                            ",
"                      H y.y.y.y.y.y.y.y.y.y.y.y.y.y.y.y.y.y.y.y.8.8.I L V V L V L V V V V V V V V V V V V V V V V V V V V V V V V V V V V V V V V V V V V V V V V V V V V V V V V V L I _ 0.y.y.y.y.y.y.y.y.y.y.y.y.y.y.y.y.y.y.y.y.                            ",
"                      +.y.y.y.y.y.y.y.y.y.y.y.y.y.y.y.y.y.y.+._ V V V V V V V V V V V V V V V V V V V V V V V V V V V V V V V V V V V V V V V V V V V V V V V V V V V V V V V V V V V V L V ! 0.y.y.y.y.y.y.y.y.y.y.y.y.y.y.y.y.y.y.+.                          ",
"                      8.y.y.y.y.y.y.y.y.y.y.y.y.y.y.y.0.8.L L L V V V V V V V V V V V V V V V V V V V V V V V V V V V V V V V V V V V V V V V V V V V V V V V V V V V V V V V V V V V V L V V V I _ y.y.y.y.y.y.y.y.y.y.y.y.y.y.y.y.0.                          ",
"                      y.y.y.y.y.y.y.y.y.y.y.y.y.y.0.I I V V V V V V V V V V V V V V V V V V V V V V V V V V V V V V V V V V V V V V V V V V V V V V V V V V V V V V V V V V V V V V V V V V V V L L B ! +.y.y.y.y.y.y.y.y.y.y.y.y.y.0.                          ",
"                      0.y.y.y.y.y.y.y.y.y.y.0.0._ V L L V V V V V V V V V V V V V V V V V V V V V V V V V V V V V V V V V V V V V V V V V V V V V V V V V V V V V V V V V V V V V V V V V V V V V V V V L _ y.y.y.y.y.y.y.y.y.y.y.y.0.                          ",
"                      0.y.y.y.y.y.y.y.y.y.y.0.V V V V V V V V V V V V V V V V V V V V V V V V V V V V V V V V V V V V V V V V V V V V V V V V V V V V V V V V V V V V V V V V V V V V V V V V V V V V V V V I 8.y.y.y.y.y.y.y.y.y.y.0.                          ",
"                      +.y.y.y.y.y.y.y.y.0./ B V V V V V V V V V V V V V V V V V V V V V V V V V V V V V V V V V V V V V V V V V V V V V V V V V V V V V V V V V V V V V V V V V V V V V V V V V V V V V V V V V _ 0.y.y.y.y.y.y.y.y.+.                          ",
"                        y.y.y.y.y.y.y.8.I V V V V V V V V V V V V V V V V V V V V V V V V V V V V V V V V V V V V V V V V V V V V V V V V V V V V V V V V V V V V V V V V V V V V V V V V V V V V V V V V V V V V L 8.y.y.y.y.y.y.y.                            ",
"                        y.y.y.y.y.y.+.V V V V V V V V V V V V V V V V V V V V V V V V V V V V V V V V V V V V V V V V V V V V V V V V V V V V V V V V V V V V V V V V V V V V V V V V V V V V V V V V V V V V V V V V _ y.y.y.y.y.y.                            ",
"                        <.y.y.y.y.! V V V V V V V V V V V V V V V V V V V V V V V V V V V V V V V V V V V V V V V V V V V V V V V V V V V V V V V V V V V V V V V V V V V V V V V V V V V V V V V V V V V V V V V V V V ! y.y.y.y.0.                            ",
"                          y.y.y.I V V V V V V V V V V V V V V V V V V V V V V V V V V V V V V V V V V V V V V V V V V V V V V V V V V V V V V V V V V V V V V V V V V V V V V V V V V V V V V V V V V V V V V V V V V L L I y.y.y.                              ",
"                          +.y._ V V V V V V V V V V V V V V V V V V V V V V V V V V V V V V V V V V V V V V V V V V V V V V V V V V V V V V V V V V V V V V V V V V V V V V V V V V V V V V V V V V V V V V V V V V V V V V _ y.+.                              ",
"                            +.L V V V V V V V V V V V V V V V V V V V V V V V V V V V V V V V V V V V V V V V V V V V V V V V V V V V V V V V V V V V V V V V V V V V V V V V V V V V V V V V V V V V V V V V V V V V V V V V _                                 ",
"                            k V V V V V V V V V V V V V V V V V V V V V V V V V V V V V V V V V V V V B V V V V V V V V V V V V V V V V V V V V V V V V V V V V V V V V V V V V V V V V V V V V V V V V V V V V V V V V V V I y                                 ",
"                              B V V V V V V V V V V V V V V V V V V V V V V V B V V V V V V V V V B B n h , , 3 - @ @ @ @ @ @ @ - X - X @ , - , a y n n V V V V V V V V V V V V V V V V V V V V V V V V V V V V V V V V V B B                                   ",
"                                Z V V V V V V V V V V V V V V V V V V V V V V B V V V n k y h - - @ @ @ @ @ @ @ @ @ @ @ @ @ @ @ @ @ @ @ @ @ @ @ @ @ @ @ - - - y h h k V V V V V V V V V V V V V V V V V V V V V V V V V V B                                     ",
"                                  I V V V V V V V V V V V V V V V V V V V V V B h - @ @ - @ - - @ @ @ @ @ @ @ @ @ @ @ @ @ @ @ @ @ @ @ @ @ @ @ @ @ @ @ @ @ - - @ @ @ - @ , h B V V V V V V V V V V V V V V V V V V V B B B                                       ",
"                                    B V V V V V V V V V V V V V V V V B h , @ @ @ @ @ @ @ @ @ @ @ @ @ @ @ @ @ @ @ @ @ @ @ @ @ @ @ @ @ @ @ @ @ @ @ @ @ @ @ @ @ @ @ @ @ @ @ @ @ @ y h B V V V V V V V V V V V V V V V V B                                         ",
"                                        V V V V V V V V V V V V V h - @ @ @ @ @ @ @ @ @ @ @ @ @ @ @ @ @ @ @ @ @ @ @ @ @ @ @ @ @ @ @ @ @ @ @ @ @ @ @ @ @ @ @ @ @ @ @ @ @ @ @ @ @ @ @ @ , h B B B V V V V V V V V V L                                             ",
"                                          B B B V V V V V V h - @ @ @ @ @ @ @ @ @ @ @ @ @ @ @ @ @ @ @ @ @ @ @ @ @ @ @ @ @ @ @ @ @ @ @ @ @ @ @ @ @ @ @ @ @ @ @ @ @ @ @ @ @ @ @ @ @ @ @ @ @ @ , n L L V V V V V V V                                               ",
"                                              V B B V B y @ @ @ @ @ @ @ @ @ @ @ @ @ @ @ @ @ @ @ @ @ @ @ @ @ @ @ @ @ @ @ @ @ @ @ @ @ @ @ @ @ @ @ @ @ @ @ @ @ @ @ @ @ @ @ @ @ @ @ @ @ @ @ @ @ @ @ - 3 B L V V L                                                   ",
"                                                B B h @ - @ @ @ @ @ @ @ @ @ @ @ @ @ @ @ @ @ @ @ @ @ @ @ @ @ @ @ @ @ @ @ @ @ @ @ @ @ @ @ @ @ @ @ @ @ @ @ @ @ @ @ @ @ @ @ @ @ @ @ @ @ @ @ @ @ @ @ - - @ h B Z                                                     ",
"                                                    y - - - @ @ @ @ @ @ @ @ @ @ @ @ @ @ @ @ @ @ @ @ @ @ @ @ @ @ @ @ @ @ @ @ @ @ @ @ @ @ @ @ @ @ @ @ @ @ @ @ @ @ @ @ @ @ @ @ @ @ @ @ @ @ @ @ @ @ @ @ @ 3                                                         ",
"                                                        y - @ @ @ @ @ @ @ @ @ @ @ @ @ @ @ @ @ @ @ @ @ @ @ @ @ @ @ @ @ @ @ @ @ @ @ @ @ @ @ @ @ @ @ @ @ @ @ @ @ @ @ @ @ @ @ @ @ @ @ @ @ @ @ @ @ @ - y                                                             ",
"                                                            @ y @ @ @ @ @ @ @ @ @ @ @ @ @ @ @ @ @ @ @ @ @ @ @ @ @ @ @ @ @ @ @ @ @ @ @ @ @ @ @ @ @ @ @ @ @ @ @ @ @ @ @ @ @ @ @ @ @ @ @ - @ @ 2 @                                                                 ",
"                                                                  y y - @ - @ @ @ @ @ @ @ @ @ @ @ @ @ @ @ @ @ @ @ @ @ @ @ @ @ @ @ @ @ @ @ @ @ @ @ @ @ @ @ @ @ @ @ @ @ @ @ @ @ @ @ @ @ y ,                                                                       ",
"                                                                        * , - @ @ @ @ @ @ @ @ @ @ @ @ @ @ @ @ @ @ @ @ @ @ @ @ @ @ @ @ @ @ @ @ @ @ @ @ @ @ @ @ @ @ @ @ @ @ @ - - y @                                                                             ",
"                                                                                y y @ @ @ @ @ - @ @ @ @ - - @ @ @ @ @ @ @ @ @ @ @ @ @ @ @ @ @ @ @ @ @ @ @ @ @ @ @ @ @ @ , 2                                                                                     ",
"                                                                                        - 3 y y @ @ @ @ - - @ @ @ @ @ @ @ @ @ @ @ @ @ @ @ @ @ - @ @ - - @ @ , * 2 3                                                                                             ",
"                                                                                                    @ , y 3 y y , y - @ * - @ @ @ @ @ , , , y y , y y -                                                                                                         ",
"                                                                                                                                                                                                                                                                ",
"                                                                                                                                                                                                                                                                ",
"                                                                                                                                                                                                                                                                ",
"                                                                                                                                                                                                                                                                ",
"                                                                                                                                                                                                                                                                "
};
